<svg xmlns="http://www.w3.org/2000/svg" width="19" height="19" viewBox="0 0 19 19">
  <g fill="none" fill-rule="evenodd">
    <path fill="#000" fill-rule="nonzero" d="M9.50049477,-3.55271368e-15 C14.7460028,-3.55271368e-15 19,4.25300766 19,9.49950523 C19,14.7469923 14.7460028,19 9.50049477,19 C4.25300766,19 -4.4408921e-13,14.7469923 -4.4408921e-13,9.49950523 C-4.4408921e-13,4.25300766 4.25300766,-3.55271368e-15 9.50049477,-3.55271368e-15 Z M9.49950523,17.0199469 C13.6525702,17.0199469 17.0209364,13.6525702 17.0209364,9.49950523 C17.0209364,5.34545076 13.6525702,1.97906359 9.49950523,1.97906359 C5.34545076,1.97906359 1.97906359,5.34644029 1.97906359,9.49950523 C1.97906359,13.6535597 5.34644029,17.0199469 9.49950523,17.0199469 Z"/>
    <path fill="#000" fill-rule="nonzero" d="M10.6672798,9.31670823 L10.6672798,4 L8.62354384,4 L8.62354384,10.2294264 L5,12.2723192 L6.02186797,14 L10.2268547,11.6289277 C10.4700593,11.4922693 10.6672798,11.1571072 10.6672798,10.882793 L10.6672798,10.715212 L15,6.559601 C14.7976701,6.28927681 14.5800123,6.0319202 14.3388514,5.79551122 L10.6672798,9.31670823 Z"/>
  </g>
</svg>
