<svg xmlns="http://www.w3.org/2000/svg" width="212" height="98" viewBox="0 0 212 98">
  <g fill="none" fill-rule="evenodd">
    <path fill="#1FAE9B" fill-rule="nonzero" d="M65.8907 80.469L65.2032 66.321 62.2149 79.993C61.66802 82.5868 60.9844 84.9657 64.6602 86.868 67.25 89.1141 64.32817 92.3172 61.5391 91.9032 53.0196 92.18054 54.2539 86.5282 54.9922 82.5165L55.47267 76.7274C55.81642 72.7821 56.56647 70.329 56.76957 64.8134L55.62117 61.8251C46.43367 59.4423 40.09817 57.6728 32.95717 53.8642L27.84387 54.54389C25.53137 54.88764 26.15247 57.61029 25.87907 59.37979L25.13298 64.20789 20.90638 75.16889 20.57435 76.12201C20.29701 76.87592 20.36341 79.86811 21.46107 81.42671L23.69937 85.98921C25.46887 88.57901 25.94157 94.97751 21.18377 92.92671L17.64467 91.43841C15.13297 90.41891 13.08217 83.41111 12.20717 78.30541L12.277483 71.15311C10.093883 70.47733 9.207183 83.34411 10.093883 85.98911L12.277483 92.66491C12.949363 94.83291 10.437683 95.58681 8.668083 95.58681 4.515783 95.58681 2.675883 91.36801 1.793083 87.82511L1.117303 85.18061C.086003 81.09471.629023 74.89561 2.742303 71.28561L3.691523 69.05121C5.593823 64.62151 3.281363 61.41841 2.742303 59.17231.972803 51.95751-.456897 44.94531 4.511803 38.00431L4.859463 37.52775C4.714933 36.98478 3.285263 35.83245 2.398563 33.10975.492363 26.97695-1.210837 16.91475 1.179763 16.91475L2.742263 16.836626C6.761763 16.836626 5.597763 33.441626 10.371163 32.359626L44.945163 32.703376 50.999863 31.062776C53.249863 30.457306 55.152163 29.027576 57.120963 27.797176L61.062363 25.351876C65.624863 29.914376 69.577963 32.703476 76.109363 35.082376 77.882763 48.617376 75.910143 51.621376 74.207063 59.711376L73.519563 62.980876C72.304763 68.766076 71.890663 74.757876 72.167963 80.679876L72.300773 83.468976C72.234367 86.324476 73.859373 86.527576 76.109373 87.211176 77.527373 87.961176 78.542973 90.816676 75.753903 92.179976 64.121 94.0159 66.0235 87.6878 65.8907 80.469zM83.062 9.496C84.9643 10.7929 87.3472 13.1054 89.2534 15.1405L91.6401 17.7343C93.2026 19.3593 95.5815 19.1601 97.6948 19.5702L98.43699 19.70692C100.74949 20.92572 100.01119 23.37882 99.2573 25.21862L98.78074 26.37092C96.59714 31.61702 90.13624 32.02712 85.57374 29.57012L83.53854 28.48812 82.85104 28.484214 81.42914 29.437334 78.50334 31.749834C72.58144 29.160034 67.75334 26.035034 63.86634 21.882634L72.78824 10.714634 75.78044 6.363034 76.38982 4.933334 77.07732 3.363034C77.62029 1.605234 79.86642-.101766 81.50702.573934 83.06562 1.261434 84.08512 4.249734 83.67502 5.823934L83.26877 7.593434 83.062 9.496z"/>
    <path fill="#1FAE9B" d="M141.654 26L136.83 26 132.222 18.368C131.862 18.404 131.466 18.404 131.07 18.404L125.094 18.404 125.094 26 120.846 26 120.846.8 131.07.8C137.514.8 141.222 3.932 141.222 9.404 141.222 13.436 139.35 16.28 136.002 17.576L141.654 26zM125.094 14.588L131.07 14.588C134.958 14.588 137.19 12.932 137.19 9.512 137.19 6.2 134.958 4.616 131.07 4.616L125.094 4.616 125.094 14.588zM150.618 15.56L150.618.8 146.37.8 146.37 15.56C146.37 22.148 150.546 26.18 157.35 26.18 164.154 26.18 168.294 22.148 168.294 15.56L168.294.8 164.046.8 164.046 15.56C164.046 19.844 161.49 22.364 157.386 22.364 153.246 22.364 150.618 19.808 150.618 15.56z"/>
    <polygon fill="#1FAE9B" points="174.378 .8 174.378 26 178.626 26 178.626 15.668 190.074 15.668 190.074 11.888 178.626 11.888 178.626 4.616 191.262 4.616 191.298 .8"/>
    <polygon fill="#1FAE9B" points="195.078 .8 195.078 26 199.326 26 199.326 15.668 210.774 15.668 210.774 11.888 199.326 11.888 199.326 4.616 211.962 4.616 211.998 .8"/>
    <path fill="#1FAE9B" d="M141.654 61L136.83 61 132.222 53.368C131.862 53.404 131.466 53.404 131.07 53.404L125.094 53.404 125.094 61 120.846 61 120.846 35.8 131.07 35.8C137.514 35.8 141.222 38.932 141.222 44.404 141.222 48.436 139.35 51.28 136.002 52.576L141.654 61zM125.094 49.588L131.07 49.588C134.958 49.588 137.19 47.932 137.19 44.512 137.19 41.2 134.958 39.616 131.07 39.616L125.094 39.616 125.094 49.588zM150.618 50.56L150.618 35.8 146.37 35.8 146.37 50.56C146.37 57.148 150.546 61.18 157.35 61.18 164.154 61.18 168.294 57.148 168.294 50.56L168.294 35.8 164.046 35.8 164.046 50.56C164.046 54.844 161.49 57.364 157.386 57.364 153.246 57.364 150.618 54.808 150.618 50.56z"/>
    <polygon fill="#1FAE9B" points="174.378 35.8 174.378 61 178.626 61 178.626 50.668 190.074 50.668 190.074 46.888 178.626 46.888 178.626 39.616 191.262 39.616 191.298 35.8"/>
    <polygon fill="#1FAE9B" points="195.078 35.8 195.078 61 199.326 61 199.326 50.668 210.774 50.668 210.774 46.888 199.326 46.888 199.326 39.616 211.962 39.616 211.998 35.8"/>
    <path fill="#1FAE9B" d="M137.946,77.676 L140.43,74.58 C137.982,72.168 134.418,70.692 130.854,70.692 C123.402,70.692 117.606,76.2 117.606,83.364 C117.606,90.6 123.33,96.18 130.71,96.18 C134.274,96.18 137.91,94.56 140.466,92.04 L137.946,89.232 C136.038,91.068 133.446,92.22 130.926,92.22 C125.886,92.22 121.926,88.296 121.926,83.328 C121.926,78.36 125.886,74.472 130.926,74.472 C133.482,74.472 136.11,75.696 137.946,77.676 Z"/>
    <polygon fill="#1FAE9B" points="144.786 70.8 144.786 96 159.942 96 159.942 92.148 149.034 92.148 149.034 70.8"/>
    <path fill="#1FAE9B" d="M167.754 85.56L167.754 70.8 163.506 70.8 163.506 85.56C163.506 92.148 167.682 96.18 174.486 96.18 181.29 96.18 185.43 92.148 185.43 85.56L185.43 70.8 181.182 70.8 181.182 85.56C181.182 89.844 178.626 92.364 174.522 92.364 170.382 92.364 167.754 89.808 167.754 85.56zM202.458 70.8C207.678 70.8 210.918 73.176 210.918 77.1 210.918 79.944 209.226 82.068 206.49 82.716 209.874 83.292 211.89 85.704 211.89 89.088 211.89 93.408 208.398 96 202.71 96L191.514 96 191.514 70.8 202.458 70.8zM202.242 81.24C204.942 81.24 206.562 79.98 206.562 77.856 206.562 75.732 204.942 74.58 202.242 74.58L195.762 74.58 195.762 81.24 202.242 81.24zM202.242 92.22C205.554 92.22 207.534 90.924 207.534 88.548 207.534 86.316 205.554 84.984 202.242 84.984L195.762 84.984 195.762 92.22 202.242 92.22z"/>
  </g>
</svg>
