<svg xmlns="http://www.w3.org/2000/svg" width="30" height="30" viewBox="0 0 30 30">
  <g fill="none" fill-rule="evenodd">
    <path fill="#1FAE9B" fill-rule="nonzero" d="M15,0.6 C7.047,0.6 0.6,7.047 0.6,15 C0.6,22.953 7.047,29.4 15,29.4 C22.953,29.4 29.4,22.953 29.4,15 C29.4,7.047 22.953,0.6 15,0.6 Z"/>
    <path fill="#FFF" d="M18.411,10.551 L16.2465,10.551 C15.99,10.551 15.705,10.8885 15.705,11.337 L15.705,12.9 L18.4125,12.9 L18.003,15.129 L15.705,15.129 L15.705,21.8205 L13.1505,21.8205 L13.1505,15.129 L10.833,15.129 L10.833,12.9 L13.1505,12.9 L13.1505,11.589 C13.1505,9.708 14.4555,8.1795 16.2465,8.1795 L18.411,8.1795 L18.411,10.551 Z"/>
  </g>
</svg>
