<svg xmlns="http://www.w3.org/2000/svg" width="30" height="30" viewBox="0 0 30 30">
  <g fill="#1FAE9B">
    <path d="M11.5787266,1.89969903 L11.5787267,1.89969917 C11.340915,1.2832705 10.8536867,0.796042181 10.237258,0.558230528 L10.2372577,0.558230417 C9.81694802,0.402463926 9.37298299,0.320127543 8.9247698,0.314820535 C8.17934294,0.28080705 7.95586615,0.273653757 6.06847118,0.273653757 C4.18107622,0.273653757 3.95759942,0.28080705 3.21217256,0.314806398 L3.21217237,0.3148064 C2.76395919,0.320113352 2.31999415,0.402449508 1.89968446,0.558216282 L1.8996847,0.55821619 C1.28325603,0.796027843 0.796027709,1.28325617 0.558216057,1.89968484 L0.55821621,1.89968442 C0.402449719,2.31999411 0.320113337,2.76395915 0.314806328,3.21217233 C0.280807122,3.95759919 0.273653829,4.18118908 0.273653829,6.06847095 C0.273653829,7.95575282 0.280821259,8.17934271 0.31480647,8.92476957 L0.314806373,8.9247614 C0.32010227,9.372976 0.402437889,9.81694245 0.558213428,10.2372493 C0.796025079,10.8536766 1.28325481,11.3409063 1.89968207,11.578718 L1.89968249,11.5787181 C2.31999218,11.7344846 2.76395721,11.816821 3.2121704,11.822128 C3.95741348,11.8560567 4.18097509,11.8632806 6.06846902,11.8632806 C7.95596294,11.8632806 8.17952456,11.8561132 8.92476764,11.822128 L8.92476748,11.822128 C9.37298067,11.8168211 9.81694571,11.7344849 10.2372554,11.5787181 L10.2372552,11.5787182 C10.8536839,11.3409065 11.3409122,10.8536782 11.5787239,10.2372495 L11.578724,10.2372493 C11.7345003,9.81694246 11.8168367,9.37297601 11.8221338,8.92476141 C11.8560625,8.17934868 11.8632865,7.95587189 11.8632865,6.06846279 C11.8632865,4.18105368 11.8561358,3.95760517 11.8221364,3.21217831 L11.8221365,3.21219042 C11.8168294,2.76398147 11.7344947,2.32002209 11.5787309,1.89971664 L11.5787266,1.89969903 Z M6.06847143,9.69823047 L6.06847127,9.69823047 C4.06381036,9.69823038 2.43871223,8.07313234 2.43871223,6.06847143 C2.43871232,4.06381052 4.06381036,2.43871239 6.06847127,2.43871239 C8.07313218,2.43871248 9.69823031,4.06381052 9.69823031,6.06847143 L9.69823031,6.06848541 C9.69823031,8.07313218 8.07313218,9.69823031 6.06848541,9.69823031 C6.06847604,9.69823031 6.06846666,9.69823031 6.06845729,9.69823031 L6.06847143,9.69823047 Z M9.84162148,3.14353795 C9.37316415,3.14353793 8.99340487,2.76377867 8.99340487,2.29532138 C8.99340489,1.82686409 9.37316415,1.44710481 9.84162144,1.44710481 C10.3100787,1.44710483 10.689838,1.82686409 10.689838,2.29532138 C10.689838,2.29532138 10.689838,2.29532138 10.689838,2.29532138 C10.689838,2.76377863 10.3100787,3.14353791 9.84162144,3.14353791 Z" transform="translate(8.932 8.932)"/>
    <path d="M16.6660894,13.3339314 C17.586239,14.254081 17.586239,15.7459342 16.6660894,16.6660937 C15.7459398,17.5862432 14.2540866,17.5862432 13.3339272,16.6660937 C12.4137776,15.7459441 12.4137776,14.2540909 13.3339272,13.3339314 C14.2540767,12.4137818 15.74593,12.4137818 16.6660894,13.3339314"/>
    <path d="M14.1369429,0.565477714 L14.1369423,0.565477714 C6.64163412,0.565478042 0.565477121,6.64163471 0.565477121,14.1369429 C0.565477449,21.632251 6.64163412,27.708408 14.1369423,27.708408 C21.6322504,27.7084077 27.7084074,21.632251 27.7084074,14.1369429 L27.7084074,14.1368728 C27.7084074,6.6415929 21.6322928,0.565478308 14.1370129,0.565478308 C14.136966,0.565478308 14.1369191,0.565478308 14.1368722,0.565478308 L14.1369429,0.565477714 Z M21.1628762,17.0512736 L21.1628764,17.0512662 C21.1511093,17.6376496 21.0400123,18.2177944 20.8343084,18.7670387 L20.8343085,18.7670384 C20.4671805,19.716532 19.7165852,20.467133 18.7670916,20.8342553 L18.767091,20.8342555 C18.2178467,21.0399608 17.6377019,21.1510587 17.0513185,21.1628263 C16.2973501,21.1972993 16.0566121,21.2054139 14.1369453,21.2054139 C12.2172757,21.2054139 11.9765377,21.1972993 11.2225863,21.1628758 L11.2225861,21.1628758 C10.6362027,21.1511079 10.0560579,21.0400101 9.50681364,20.834305 C8.55732001,20.4671771 7.80671903,19.7165817 7.43959676,18.7670881 L7.43959667,18.7670879 C7.23389143,18.2178436 7.12279344,17.6376988 7.11102585,17.0513154 C7.0765884,16.2973498 7.06847379,16.0566118 7.06847379,14.1369422 C7.06847379,12.2172726 7.0765884,11.9765346 7.11101185,11.2225832 L7.1110117,11.2225905 C7.12277877,10.6362071 7.23387573,10.0560623 7.4395797,9.506818 L7.43957977,9.50681784 C7.80670345,8.55731573 8.55730019,7.80670909 9.50679665,7.43958682 L9.50679682,7.43958676 C10.0560411,7.23388152 10.6361859,7.12278352 11.2225693,7.11101593 C11.9765349,7.07659248 12.2172729,7.06847787 14.1369425,7.06847787 C16.0566121,7.06847787 16.2973501,7.07659248 17.0513015,7.11101593 L17.0513012,7.11101593 C17.6376847,7.1227838 18.2178295,7.23388165 18.7670737,7.43958675 L18.7670734,7.43958664 C19.7165671,7.80671456 20.467168,8.55730989 20.8342903,9.50680352 L20.8342902,9.50680318 C21.0399954,10.0560474 21.1510934,10.6361922 21.162861,11.2225757 C21.197299,11.9765426 21.2054136,12.2172806 21.2054136,14.1369488 C21.2054136,16.0566184 21.197299,16.2973564 21.1628756,17.0513079 L21.1628762,17.0512736 Z" transform="translate(.863 .863)"/>
  </g>
</svg>
