<svg xmlns="http://www.w3.org/2000/svg" width="27" height="20" viewBox="0 0 27 20">
  <g fill="#1FAE9B">
    <path d="M10.7957006,8.04739497 C7.1886704,8.04739497 4.26506319,11.0128245 4.26506319,14.6716075 C4.26506319,16.9142356 6.05721059,18.7335465 8.26962226,18.7335465 C8.89981447,18.7335465 9.49542711,18.585206 10.0245353,18.3222433 C10.5111339,18.0795074 11.0814925,18.0808537 11.568091,18.3235917 C12.0972333,18.5865579 12.692846,18.734895 13.3230041,18.734895 C15.5339523,18.734895 17.3275632,16.9157221 17.3275632,14.672956 C17.3275632,11.0128611 14.4026627,8.04770774 10.7959048,8.04770774 L10.7957006,8.04739497 Z" transform="rotate(-14 10.796 13.391)"/>
    <path d="M5.13740052,8.31815058 C5.73420266,9.88147951 5.26957323,11.5479983 4.10181327,12.0407641 C2.93405332,12.5335298 1.50335717,11.665348 0.907915439,10.1019824 C0.311113294,8.53865344 0.775742723,6.87213461 1.94350268,6.37936887 C3.11126264,5.88660314 4.54195878,6.75478498 5.13740052,8.31815058" transform="rotate(-14 3.023 9.21)"/>
    <path d="M7.43869335,8.72440265 C6.15968093,8.92288849 4.88766176,7.4989718 4.59767481,5.54143431 C4.30769146,3.58389682 5.10900723,1.83505925 6.38801965,1.63659549 C7.66703207,1.43666995 8.93905123,2.86059033 9.22903818,4.81812782 C9.51902513,6.77566531 8.71770577,8.52450288 7.43869335,8.72443947" transform="rotate(-14 6.913 5.18)"/>
    <path d="M17.9289631,2.93135954 C19.0968671,3.4242925 19.5601981,5.09071991 18.9646811,6.65385075 C18.3678036,8.21712832 16.9382489,9.08546506 15.7703798,8.59399938 C14.6024758,8.10106642 14.1377842,6.43463901 14.7346618,4.87150817 C15.3301787,3.3082306 16.7597334,2.43989386 17.9289631,2.93135954" transform="rotate(-14 16.85 5.763)"/>
    <path d="M10.9969533,7.57503464 C9.71792163,7.37511541 8.9165902,5.62617477 9.20658151,3.67031919 C9.49656924,1.71284354 10.7672125,0.287521149 12.0462442,0.487451417 C13.3252759,0.687370639 14.128006,2.43487532 13.8380147,4.39216687 C13.548027,6.34964251 12.275985,7.7749649 10.9969533,7.57503464" transform="rotate(-14 11.522 4.031)"/>
  </g>
</svg>
