<svg xmlns="http://www.w3.org/2000/svg" width="20" height="16" viewBox="0 0 20 16">
  <g fill="none" fill-rule="evenodd">
    <path fill="#000" fill-rule="nonzero" d="M17.4660175,10.253 L17.977402,13.695 C18.1574669,14.907 17.2406791,16 15.9678771,16 L4.0321431,16 C2.75831218,16 1.84255328,14.907 2.02261823,13.695 L2.5340027,10.253 C2.63278119,9.586 3.16268662,9.067 3.84487555,8.911 C6.49646059,8.307 7.1611575,6.823 7.27331225,5.177 C7.74353901,5.092 8.58006933,5 10.0000101,5 C11.4199509,5 12.2564812,5.092 12.7267079,5.177 C12.8388627,6.823 13.5035596,8.307 16.1551446,8.911 C16.8373336,9.066 17.367239,9.586 17.4660175,10.253 Z M10.0000101,13.492 C11.4343561,13.492 12.5991191,12.372 12.5991191,10.992 C12.5991191,9.612 11.435385,8.492 10.0000101,8.492 C8.56463519,8.492 7.40090113,9.612 7.40090113,10.992 C7.40090113,12.372 8.56463519,13.492 10.0000101,13.492 Z"/>
    <path fill="#000" fill-rule="nonzero" d="M19.9969693,3.90905721 C19.972856,2.44316076 16.1368359,0.000977264303 10.0000076,0 C3.86217452,0.000977264303 0.0261544509,2.44316076 0.00304589628,3.90905721 C-0.0200626584,5.37495367 0.0241450114,7.28257359 2.55001051,6.96496269 C5.50489134,6.59262499 5.32303707,5.58897455 5.32303707,4.15435055 C5.32303707,3.15363191 7.72632675,2.91224762 10.0000076,2.91224762 C12.2736884,2.91224762 14.6759734,3.15363191 14.6769781,4.15435055 C14.6769781,5.58897455 14.4951238,6.59262499 17.4500047,6.96496269 C19.9748654,7.28257359 20.0200778,5.37495367 19.9969693,3.90905721 Z"/>
  </g>
</svg>
