<svg xmlns="http://www.w3.org/2000/svg" width="30" height="30" viewBox="0 0 30 30">
  <g fill="none" fill-rule="evenodd">
    <path fill="#1FAE9B" fill-rule="nonzero" d="M15,0.6 C7.047,0.6 0.6,7.047 0.6,15 C0.6,22.953 7.047,29.4 15,29.4 C22.953,29.4 29.4,22.953 29.4,15 C29.4,7.047 22.953,0.6 15,0.6 Z"/>
    <path fill="#FFF" d="M20.8575,12.396 C20.8635,12.519 20.865,12.642 20.865,12.762 C20.865,16.512 18.0135,20.8335 12.7965,20.8335 C11.1945,20.8335 9.7035,20.3655 8.4495,19.5585 C8.67,19.5855 8.8965,19.596 9.126,19.596 C10.455,19.596 11.6775,19.1445 12.648,18.3825 C11.4075,18.3585 10.3605,17.5395 9.999,16.4145 C10.1715,16.446 10.3485,16.464 10.5315,16.464 C10.7895,16.464 11.0415,16.4295 11.2785,16.365 C9.981,16.104 9.003,14.958 9.003,13.584 L9.003,13.5495 C9.3855,13.761 9.8235,13.89 10.2885,13.905 C9.5265,13.395 9.027,12.528 9.027,11.5425 C9.027,11.0235 9.1665,10.5345 9.411,10.116 C10.8105,11.832 12.8985,12.96 15.2565,13.0815 C15.207,12.873 15.183,12.657 15.183,12.4335 C15.183,10.869 16.452,9.597 18.0195,9.597 C18.834,9.597 19.572,9.942 20.0895,10.494 C20.736,10.365 21.342,10.131 21.8895,9.8055 C21.678,10.467 21.2295,11.0235 20.643,11.376 C21.2175,11.3055 21.7635,11.154 22.272,10.9275 C21.8925,11.496 21.411,11.997 20.8575,12.396 Z"/>
  </g>
</svg>
